<svg width="24" height="25" viewBox="0 0 24 25" fill="none" xmlns="http://www.w3.org/2000/svg">
<path d="M12.1601 11.7987C12.0601 11.7887 11.9401 11.7887 11.8301 11.7987C9.45006 11.7187 7.56006 9.76871 7.56006 7.36871C7.56006 4.91871 9.54006 2.92871 12.0001 2.92871C14.4501 2.92871 16.4401 4.91871 16.4401 7.36871C16.4301 9.76871 14.5401 11.7187 12.1601 11.7987Z" stroke="#171717" stroke-width="1.5" stroke-linecap="round" stroke-linejoin="round"/>
<path d="M7.15997 15.4887C4.73997 17.1087 4.73997 19.7487 7.15997 21.3587C9.90997 23.1987 14.42 23.1987 17.17 21.3587C19.59 19.7387 19.59 17.0987 17.17 15.4887C14.43 13.6587 9.91997 13.6587 7.15997 15.4887Z" stroke="#171717" stroke-width="1.5" stroke-linecap="round" stroke-linejoin="round"/>
</svg>
