<svg width="40" height="47" viewBox="0 0 40 47" fill="none" xmlns="http://www.w3.org/2000/svg">
<path d="M15.0352 25.8399V25.1101C15.0352 23.0929 15.2014 21.485 15.5336 20.2865C15.8777 19.088 16.3761 18.1269 17.0288 17.403C17.6814 16.6673 18.4764 15.9969 19.4139 15.3917C20.1614 14.9171 20.8259 14.4365 21.4074 13.95C22.0007 13.4516 22.4694 12.9176 22.8135 12.348C23.1576 11.7785 23.3297 11.1318 23.3297 10.4079C23.3297 9.70782 23.1636 9.09078 22.8313 8.5568C22.4991 8.02283 22.0422 7.61344 21.4608 7.32866C20.8912 7.032 20.2564 6.88367 19.5562 6.88367C18.8561 6.88367 18.1976 7.04387 17.5805 7.36425C16.9754 7.68464 16.477 8.14149 16.0854 8.7348C15.7057 9.31624 15.5099 10.0223 15.498 10.8529H7.31037C7.34596 8.36101 7.92147 6.32003 9.03689 4.72997C10.1642 3.1399 11.6534 1.96515 13.5045 1.20571C15.3556 0.434414 17.3966 0.0487639 19.6274 0.0487639C22.0719 0.0487639 24.2434 0.428481 26.142 1.18791C28.0524 1.94735 29.5535 3.0687 30.6452 4.55197C31.7369 6.03524 32.2827 7.85077 32.2827 9.99854C32.2827 11.4106 32.0454 12.6566 31.5707 13.7364C31.0961 14.8162 30.4316 15.7714 29.5772 16.6021C28.7347 17.4208 27.7439 18.1684 26.6047 18.8448C25.7148 19.3669 24.9732 19.9127 24.3798 20.4823C23.7984 21.0519 23.3594 21.7045 23.0627 22.4402C22.766 23.1641 22.6177 24.054 22.6177 25.1101V25.8399H15.0352ZM18.9689 37.5162C17.6873 37.5162 16.5897 37.0653 15.676 36.1634C14.7742 35.2616 14.3292 34.1699 14.3411 32.8884C14.3292 31.6306 14.7742 30.5567 15.676 29.6667C16.5897 28.7649 17.6873 28.314 18.9689 28.314C20.1911 28.314 21.265 28.7649 22.1905 29.6667C23.1161 30.5567 23.5848 31.6306 23.5967 32.8884C23.5848 33.7427 23.3594 34.52 22.9203 35.2201C22.4931 35.9202 21.9295 36.4779 21.2294 36.8932C20.5411 37.3085 19.7876 37.5162 18.9689 37.5162Z" fill="#FF0000"/>
<g filter="url(#filter0_b_702_1695)">
<rect y="17.2712" width="40" height="29.1525" rx="5.22111" fill="#FFB7B5" fill-opacity="0.28"/>
<rect x="0.110085" y="17.3813" width="39.7798" height="28.9323" rx="5.11103" stroke="url(#paint0_linear_702_1695)" stroke-width="0.22017"/>
</g>
<defs>
<filter id="filter0_b_702_1695" x="-4.4034" y="12.8678" width="48.8067" height="37.9593" filterUnits="userSpaceOnUse" color-interpolation-filters="sRGB">
<feFlood flood-opacity="0" result="BackgroundImageFix"/>
<feGaussianBlur in="BackgroundImageFix" stdDeviation="2.2017"/>
<feComposite in2="SourceAlpha" operator="in" result="effect1_backgroundBlur_702_1695"/>
<feBlend mode="normal" in="SourceGraphic" in2="effect1_backgroundBlur_702_1695" result="shape"/>
</filter>
<linearGradient id="paint0_linear_702_1695" x1="-21.2543" y1="8.68166" x2="14.2416" y2="79.2588" gradientUnits="userSpaceOnUse">
<stop stop-color="white"/>
<stop offset="0.765625" stop-color="white" stop-opacity="0"/>
</linearGradient>
</defs>
</svg>
