<svg width="21" height="21" viewBox="0 0 21 21" fill="none" xmlns="http://www.w3.org/2000/svg">
<path d="M4.25 10.5122H16.75" stroke="#222222" stroke-width="1.5" stroke-miterlimit="1.41421"/>
<path d="M4.25 7.07871C4.25 6.23863 4.25 5.81859 4.41349 5.49773C4.5573 5.21548 4.78677 4.98601 5.06901 4.8422C5.38988 4.67871 5.80992 4.67871 6.65 4.67871H8.22237C8.59808 4.67871 8.78594 4.67871 8.95645 4.7305C9.10741 4.77635 9.24785 4.85151 9.36972 4.95169C9.50739 5.06485 9.61159 5.22116 9.81997 5.53379L10.3467 6.32397C10.5551 6.6366 10.6593 6.79291 10.7969 6.90607C10.9188 7.00625 11.0593 7.08141 11.2102 7.12726C11.3807 7.17905 11.5686 7.17905 11.9443 7.17905H14.35C15.1901 7.17905 15.6101 7.17905 15.931 7.34254C16.2132 7.48635 16.4427 7.71582 16.5865 7.99806C16.75 8.31893 16.75 8.73897 16.75 9.57905V13.9457C16.75 14.7858 16.75 15.2058 16.5865 15.5267C16.4427 15.8089 16.2132 16.0384 15.931 16.1822C15.6101 16.3457 15.1901 16.3457 14.35 16.3457H6.65C5.80992 16.3457 5.38988 16.3457 5.06901 16.1822C4.78677 16.0384 4.5573 15.8089 4.41349 15.5267C4.25 15.2058 4.25 14.7858 4.25 13.9457V7.07871Z" stroke="#222222" stroke-width="1.5"/>
</svg>
