<svg width="22" height="20" viewBox="0 0 22 20" fill="none" xmlns="http://www.w3.org/2000/svg">
<path d="M16.869 16.1463C17.4346 16.1463 17.9188 15.9457 18.3216 15.5445C18.7244 15.1433 18.9258 14.661 18.9258 14.0976C18.9258 13.5341 18.7244 13.0518 18.3216 12.6506C17.9188 12.2494 17.4346 12.0488 16.869 12.0488C16.3034 12.0488 15.8192 12.2494 15.4164 12.6506C15.0136 13.0518 14.8122 13.5341 14.8122 14.0976C14.8122 14.661 15.0136 15.1433 15.4164 15.5445C15.8192 15.9457 16.3034 16.1463 16.869 16.1463ZM16.6633 19.2195C16.4234 19.2195 16.2134 19.1427 16.0334 18.989C15.8535 18.8354 15.7378 18.639 15.6864 18.4L15.5321 17.6829C15.3264 17.5976 15.1336 17.5079 14.9536 17.414C14.7737 17.3201 14.5894 17.2049 14.4009 17.0683L13.6553 17.2988C13.4325 17.3671 13.2139 17.3585 12.9997 17.2732C12.7854 17.1878 12.6183 17.0512 12.4983 16.8634L12.2926 16.5049C12.1727 16.3 12.1298 16.078 12.1641 15.839C12.1984 15.6 12.3098 15.4037 12.4983 15.25L13.0639 14.7634C13.0297 14.5585 13.0125 14.3366 13.0125 14.0976C13.0125 13.8585 13.0297 13.6366 13.0639 13.4317L12.4983 12.9451C12.3098 12.7915 12.1984 12.5994 12.1641 12.3689C12.1298 12.1384 12.1727 11.9207 12.2926 11.7159L12.524 11.3317C12.644 11.1439 12.8068 11.0073 13.0125 10.9219C13.2182 10.8366 13.4325 10.828 13.6553 10.8963L14.4009 11.1268C14.5894 10.9902 14.7737 10.875 14.9536 10.7811C15.1336 10.6872 15.3264 10.5976 15.5321 10.5122L15.6864 9.76951C15.7378 9.53049 15.8535 9.33841 16.0334 9.19329C16.2134 9.04817 16.4234 8.97561 16.6633 8.97561H17.0747C17.3147 8.97561 17.5246 9.05244 17.7046 9.2061C17.8846 9.35976 18.0003 9.5561 18.0517 9.79512L18.2059 10.5122C18.4116 10.5976 18.6044 10.6872 18.7844 10.7811C18.9644 10.875 19.1486 10.9902 19.3372 11.1268L20.0828 10.8963C20.3056 10.828 20.5241 10.8366 20.7384 10.9219C20.9526 11.0073 21.1197 11.1439 21.2397 11.3317L21.4454 11.6902C21.5654 11.8951 21.6082 12.1171 21.5739 12.3561C21.5397 12.5951 21.4283 12.7915 21.2397 12.9451L20.6741 13.4317C20.7084 13.6366 20.7255 13.8585 20.7255 14.0976C20.7255 14.3366 20.7084 14.5585 20.6741 14.7634L21.2397 15.25C21.4283 15.4037 21.5397 15.5957 21.5739 15.8262C21.6082 16.0567 21.5654 16.2744 21.4454 16.4793L21.214 16.8634C21.094 17.0512 20.9312 17.1878 20.7255 17.2732C20.5198 17.3585 20.3056 17.3671 20.0828 17.2988L19.3372 17.0683C19.1486 17.2049 18.9644 17.3201 18.7844 17.414C18.6044 17.5079 18.4116 17.5976 18.2059 17.6829L18.0517 18.4256C18.0003 18.6646 17.8846 18.8567 17.7046 19.0018C17.5246 19.147 17.3147 19.2195 17.0747 19.2195H16.6633ZM2.47144 17.1707C1.90582 17.1707 1.42162 16.9701 1.01883 16.5689C0.616037 16.1677 0.414642 15.6854 0.414642 15.1219V2.82927C0.414642 2.26585 0.616037 1.78354 1.01883 1.38232C1.42162 0.981097 1.90582 0.780487 2.47144 0.780487H7.7934C8.06764 0.780487 8.32903 0.831707 8.57756 0.934146C8.82609 1.03658 9.04462 1.18171 9.23316 1.36951L10.6986 2.82927H18.9258C19.4914 2.82927 19.9756 3.02988 20.3784 3.4311C20.7812 3.83232 20.9826 4.31463 20.9826 4.87805V8.20732C20.3827 7.78049 19.7314 7.46036 19.0287 7.24695C18.3259 7.03354 17.606 6.92683 16.869 6.92683C14.8636 6.92683 13.1625 7.62256 11.7656 9.01402C10.3687 10.4055 9.67023 12.1 9.67023 14.0976C9.67023 14.6439 9.72594 15.1732 9.83735 15.6854C9.94876 16.1976 10.1244 16.6927 10.3644 17.1707H2.47144Z" fill="#FF0000"/>
</svg>
