<svg width="20" height="21" viewBox="0 0 20 21" fill="none" xmlns="http://www.w3.org/2000/svg">
<path d="M8.95828 2.97031C9.53328 2.47865 10.4749 2.47865 11.0583 2.97031L12.3749 4.10365C12.6249 4.32031 13.0916 4.49531 13.4249 4.49531H14.8416C15.7249 4.49531 16.4499 5.22031 16.4499 6.10365V7.52031C16.4499 7.84531 16.6249 8.32031 16.8416 8.57031L17.9749 9.88698C18.4666 10.462 18.4666 11.4036 17.9749 11.987L16.8416 13.3036C16.6249 13.5536 16.4499 14.0203 16.4499 14.3536V15.7703C16.4499 16.6536 15.7249 17.3786 14.8416 17.3786H13.4249C13.0999 17.3786 12.6249 17.5536 12.3749 17.7703L11.0583 18.9036C10.4833 19.3953 9.54161 19.3953 8.95828 18.9036L7.64161 17.7703C7.39161 17.5536 6.92494 17.3786 6.59161 17.3786H5.14994C4.26661 17.3786 3.54161 16.6536 3.54161 15.7703V14.3453C3.54161 14.0203 3.36661 13.5536 3.15828 13.3036L2.03328 11.9786C1.54994 11.4036 1.54994 10.4703 2.03328 9.89531L3.15828 8.57031C3.36661 8.32031 3.54161 7.85365 3.54161 7.52865V6.09531C3.54161 5.21198 4.26661 4.48698 5.14994 4.48698H6.59161C6.91661 4.48698 7.39161 4.31198 7.64161 4.09531L8.95828 2.97031Z" stroke="black" stroke-width="1.5" stroke-linecap="round" stroke-linejoin="round"/>
<path d="M5.68888 12.9287V9.29235H7.86927V9.68297H6.12922V10.9117H7.70592V11.3023H6.12922V12.9287H5.68888ZM8.53733 12.9287V10.2014H8.94216V10.6134H8.97057C9.02029 10.4784 9.11025 10.3689 9.24046 10.2849C9.37066 10.2008 9.51745 10.1588 9.6808 10.1588C9.71157 10.1588 9.75004 10.1594 9.79621 10.1606C9.84237 10.1618 9.87729 10.1636 9.90097 10.1659V10.5921C9.88676 10.5885 9.85421 10.5832 9.80331 10.5761C9.7536 10.5678 9.70092 10.5637 9.64529 10.5637C9.51271 10.5637 9.39434 10.5915 9.29017 10.6471C9.18719 10.7016 9.10551 10.7773 9.04514 10.8744C8.98596 10.9703 8.95637 11.0798 8.95637 11.2029V12.9287H8.53733ZM11.4581 12.9855C11.1954 12.9855 10.9687 12.9275 10.7781 12.8115C10.5887 12.6943 10.4425 12.531 10.3395 12.3215C10.2377 12.1108 10.1868 11.8657 10.1868 11.5864C10.1868 11.307 10.2377 11.0608 10.3395 10.8477C10.4425 10.6335 10.5857 10.4666 10.7692 10.347C10.9539 10.2263 11.1693 10.1659 11.4155 10.1659C11.5576 10.1659 11.6978 10.1896 11.8363 10.2369C11.9748 10.2843 12.1009 10.3612 12.2145 10.4678C12.3282 10.5731 12.4187 10.7128 12.4862 10.8868C12.5537 11.0608 12.5874 11.2751 12.5874 11.5296V11.7071H10.4851V11.3449H12.1613C12.1613 11.191 12.1305 11.0537 12.0689 10.933C12.0086 10.8122 11.9222 10.7169 11.8097 10.6471C11.6984 10.5773 11.567 10.5423 11.4155 10.5423C11.2486 10.5423 11.1042 10.5838 10.9823 10.6666C10.8616 10.7483 10.7686 10.8548 10.7035 10.9862C10.6384 11.1176 10.6059 11.2585 10.6059 11.4088V11.6503C10.6059 11.8563 10.6414 12.0309 10.7124 12.1741C10.7846 12.3161 10.8846 12.4244 11.0125 12.499C11.1403 12.5724 11.2889 12.6091 11.4581 12.6091C11.5682 12.6091 11.6677 12.5937 11.7564 12.5629C11.8464 12.531 11.9239 12.4836 11.989 12.4209C12.0541 12.357 12.1044 12.2777 12.14 12.183L12.5448 12.2966C12.5022 12.4339 12.4306 12.5547 12.3299 12.6588C12.2293 12.7618 12.105 12.8423 11.9571 12.9003C11.8091 12.9571 11.6428 12.9855 11.4581 12.9855ZM14.3683 12.9855C14.1055 12.9855 13.8788 12.9275 13.6883 12.8115C13.4989 12.6943 13.3527 12.531 13.2497 12.3215C13.1479 12.1108 13.097 11.8657 13.097 11.5864C13.097 11.307 13.1479 11.0608 13.2497 10.8477C13.3527 10.6335 13.4959 10.4666 13.6794 10.347C13.864 10.2263 14.0795 10.1659 14.3257 10.1659C14.4677 10.1659 14.608 10.1896 14.7465 10.2369C14.885 10.2843 15.0111 10.3612 15.1247 10.4678C15.2383 10.5731 15.3289 10.7128 15.3964 10.8868C15.4638 11.0608 15.4976 11.2751 15.4976 11.5296V11.7071H13.3953V11.3449H15.0714C15.0714 11.191 15.0406 11.0537 14.9791 10.933C14.9187 10.8122 14.8323 10.7169 14.7199 10.6471C14.6086 10.5773 14.4772 10.5423 14.3257 10.5423C14.1588 10.5423 14.0144 10.5838 13.8924 10.6666C13.7717 10.7483 13.6788 10.8548 13.6137 10.9862C13.5486 11.1176 13.516 11.2585 13.516 11.4088V11.6503C13.516 11.8563 13.5515 12.0309 13.6226 12.1741C13.6948 12.3161 13.7948 12.4244 13.9226 12.499C14.0505 12.5724 14.199 12.6091 14.3683 12.6091C14.4784 12.6091 14.5778 12.5937 14.6666 12.5629C14.7566 12.531 14.8341 12.4836 14.8992 12.4209C14.9643 12.357 15.0146 12.2777 15.0501 12.183L15.4549 12.2966C15.4123 12.4339 15.3407 12.5547 15.2401 12.6588C15.1395 12.7618 15.0152 12.8423 14.8672 12.9003C14.7193 12.9571 14.553 12.9855 14.3683 12.9855Z" fill="black"/>
</svg>
