<svg width="24" height="25" viewBox="0 0 24 25" fill="none" xmlns="http://www.w3.org/2000/svg">
<path d="M9.5 14.6789C9.5 15.6489 10.25 16.4289 11.17 16.4289H13.05C13.85 16.4289 14.5 15.7489 14.5 14.8989C14.5 13.9889 14.1 13.6589 13.51 13.4489L10.5 12.3989C9.91 12.1889 9.51001 11.8689 9.51001 10.9489C9.51001 10.1089 10.16 9.41895 10.96 9.41895H12.84C13.76 9.41895 14.51 10.1989 14.51 11.1689" stroke="#171717" stroke-width="1.5" stroke-linecap="round" stroke-linejoin="round"/>
<path d="M12 8.42871V17.4287" stroke="#171717" stroke-width="1.5" stroke-linecap="round" stroke-linejoin="round"/>
<path d="M22 12.9287C22 18.4487 17.52 22.9287 12 22.9287C6.48 22.9287 2 18.4487 2 12.9287C2 7.40871 6.48 2.92871 12 2.92871" stroke="#171717" stroke-width="1.5" stroke-linecap="round" stroke-linejoin="round"/>
<path d="M17 3.92871V7.92871H21" stroke="#171717" stroke-width="1.5" stroke-linecap="round" stroke-linejoin="round"/>
<path d="M22 2.92871L17 7.92871" stroke="#171717" stroke-width="1.5" stroke-linecap="round" stroke-linejoin="round"/>
</svg>
