<svg width="24" height="25" viewBox="0 0 24 25" fill="none" xmlns="http://www.w3.org/2000/svg">
<path d="M22 7.42871H16" stroke="#171717" stroke-width="1.5" stroke-miterlimit="10" stroke-linecap="round" stroke-linejoin="round"/>
<path d="M6 7.42871H2" stroke="#171717" stroke-width="1.5" stroke-miterlimit="10" stroke-linecap="round" stroke-linejoin="round"/>
<path d="M10 10.9287C11.933 10.9287 13.5 9.36171 13.5 7.42871C13.5 5.49571 11.933 3.92871 10 3.92871C8.067 3.92871 6.5 5.49571 6.5 7.42871C6.5 9.36171 8.067 10.9287 10 10.9287Z" stroke="#171717" stroke-width="1.5" stroke-miterlimit="10" stroke-linecap="round" stroke-linejoin="round"/>
<path d="M22 18.4287H18" stroke="#171717" stroke-width="1.5" stroke-miterlimit="10" stroke-linecap="round" stroke-linejoin="round"/>
<path d="M8 18.4287H2" stroke="#171717" stroke-width="1.5" stroke-miterlimit="10" stroke-linecap="round" stroke-linejoin="round"/>
<path d="M14 21.9287C15.933 21.9287 17.5 20.3617 17.5 18.4287C17.5 16.4957 15.933 14.9287 14 14.9287C12.067 14.9287 10.5 16.4957 10.5 18.4287C10.5 20.3617 12.067 21.9287 14 21.9287Z" stroke="#171717" stroke-width="1.5" stroke-miterlimit="10" stroke-linecap="round" stroke-linejoin="round"/>
</svg>
