<svg width="63" height="63" viewBox="0 0 63 63" fill="none" xmlns="http://www.w3.org/2000/svg">
<path fill-rule="evenodd" clip-rule="evenodd" d="M31.677 13.0263C27.3605 13.0263 23.8612 16.5256 23.8612 20.8421V36.4737C23.8612 37.9125 22.6948 39.079 21.256 39.079C19.8171 39.079 18.6507 37.9125 18.6507 36.4737V20.8421C18.6507 13.6479 24.4828 7.8158 31.677 7.8158C38.8712 7.8158 44.7033 13.6479 44.7033 20.8421V36.4737C44.7033 37.9125 43.5369 39.079 42.0981 39.079C40.6592 39.079 39.4928 37.9125 39.4928 36.4737V20.8421C39.4928 16.5256 35.9936 13.0263 31.677 13.0263Z" fill="url(#paint0_linear_702_1707)"/>
<g filter="url(#filter0_b_702_1707)">
<rect x="13.4402" y="23.4474" width="36.4737" height="28.6579" rx="7.8158" fill="#FFB7B5" fill-opacity="0.3"/>
<rect x="13.5705" y="23.5777" width="36.2132" height="28.3974" rx="7.68554" stroke="url(#paint1_linear_702_1707)" stroke-width="0.260527"/>
</g>
<g filter="url(#filter1_b_702_1707)">
<rect x="36.8876" y="31.2632" width="15.6316" height="10.4211" rx="5.21053" transform="rotate(90 36.8876 31.2632)" fill="url(#paint2_linear_702_1707)"/>
<rect x="36.784" y="31.3668" width="15.4243" height="10.2138" rx="5.10691" transform="rotate(90 36.784 31.3668)" stroke="url(#paint3_linear_702_1707)" stroke-width="0.207241"/>
</g>
<defs>
<filter id="filter0_b_702_1707" x="8.22971" y="18.2369" width="46.8948" height="39.0789" filterUnits="userSpaceOnUse" color-interpolation-filters="sRGB">
<feFlood flood-opacity="0" result="BackgroundImageFix"/>
<feGaussianBlur in="BackgroundImageFix" stdDeviation="2.60527"/>
<feComposite in2="SourceAlpha" operator="in" result="effect1_backgroundBlur_702_1707"/>
<feBlend mode="normal" in="SourceGraphic" in2="effect1_backgroundBlur_702_1707" result="shape"/>
</filter>
<filter id="filter1_b_702_1707" x="16.0455" y="20.8421" width="31.2632" height="36.4737" filterUnits="userSpaceOnUse" color-interpolation-filters="sRGB">
<feFlood flood-opacity="0" result="BackgroundImageFix"/>
<feGaussianBlur in="BackgroundImageFix" stdDeviation="5.21054"/>
<feComposite in2="SourceAlpha" operator="in" result="effect1_backgroundBlur_702_1707"/>
<feBlend mode="normal" in="SourceGraphic" in2="effect1_backgroundBlur_702_1707" result="shape"/>
</filter>
<linearGradient id="paint0_linear_702_1707" x1="24.8609" y1="12.5713" x2="57.9797" y2="19.3474" gradientUnits="userSpaceOnUse">
<stop stop-color="#FF0000"/>
<stop offset="1" stop-color="#FF0000"/>
</linearGradient>
<linearGradient id="paint1_linear_702_1707" x1="11.6166" y1="25.4944" x2="30.0054" y2="61.2386" gradientUnits="userSpaceOnUse">
<stop stop-color="white"/>
<stop offset="0.765625" stop-color="white" stop-opacity="0"/>
</linearGradient>
<linearGradient id="paint2_linear_702_1707" x1="51.7354" y1="33.8012" x2="50.9583" y2="43.6451" gradientUnits="userSpaceOnUse">
<stop stop-color="#F9FFFC"/>
<stop offset="1" stop-color="#F7FBFF" stop-opacity="0.28"/>
</linearGradient>
<linearGradient id="paint3_linear_702_1707" x1="40.3372" y1="44.1632" x2="50.1811" y2="29.9154" gradientUnits="userSpaceOnUse">
<stop stop-color="white"/>
<stop offset="1" stop-color="white" stop-opacity="0"/>
</linearGradient>
</defs>
</svg>
