<svg width="24" height="25" viewBox="0 0 24 25" fill="none" xmlns="http://www.w3.org/2000/svg">
<path d="M3 10.0386V15.8086C3 17.9286 3 17.9286 5 19.2786L10.5 22.4586C11.33 22.9386 12.68 22.9386 13.5 22.4586L19 19.2786C21 17.9286 21 17.9286 21 15.8186V10.0386C21 7.92857 21 7.92857 19 6.57857L13.5 3.39857C12.68 2.91857 11.33 2.91857 10.5 3.39857L5 6.57857C3 7.92857 3 7.92857 3 10.0386Z" stroke="#171717" stroke-width="1.5" stroke-linecap="round" stroke-linejoin="round"/>
<path d="M12 15.9287C13.6569 15.9287 15 14.5856 15 12.9287C15 11.2719 13.6569 9.92871 12 9.92871C10.3431 9.92871 9 11.2719 9 12.9287C9 14.5856 10.3431 15.9287 12 15.9287Z" stroke="#171717" stroke-width="1.5" stroke-linecap="round" stroke-linejoin="round"/>
</svg>
