<svg width="16" height="17" viewBox="0 0 16 17" fill="none" xmlns="http://www.w3.org/2000/svg">
<path d="M13.3333 0.593506C12.6261 0.593506 11.9478 0.874457 11.4477 1.37455C10.9476 1.87465 10.6667 2.55293 10.6667 3.26017C10.6679 3.44762 10.6888 3.63441 10.7292 3.81746L4.67448 6.84481C4.42476 6.55731 4.11636 6.32663 3.77003 6.16829C3.4237 6.00994 3.04748 5.92762 2.66667 5.92684C1.95942 5.92684 1.28115 6.20779 0.781048 6.70789C0.280951 7.20798 0 7.88626 0 8.59351C0 9.30075 0.280951 9.97903 0.781048 10.4791C1.28115 10.9792 1.95942 11.2602 2.66667 11.2602C3.0476 11.2597 3.42401 11.1777 3.77057 11.0196C4.11713 10.8615 4.4258 10.6309 4.67578 10.3435L10.7266 13.3695C10.6871 13.5527 10.667 13.7395 10.6667 13.9268C10.6667 14.6341 10.9476 15.3124 11.4477 15.8125C11.9478 16.3126 12.6261 16.5935 13.3333 16.5935C14.0406 16.5935 14.7189 16.3126 15.219 15.8125C15.719 15.3124 16 14.6341 16 13.9268C16 13.2196 15.719 12.5413 15.219 12.0412C14.7189 11.5411 14.0406 11.2602 13.3333 11.2602C12.9524 11.2606 12.576 11.3426 12.2294 11.5008C11.8829 11.6589 11.5742 11.8894 11.3242 12.1768L5.27344 9.1508C5.31292 8.96765 5.333 8.78086 5.33333 8.59351C5.33205 8.4065 5.3111 8.22014 5.27083 8.03752L11.3255 5.01017C11.5754 5.29743 11.8838 5.52787 12.2301 5.68599C12.5765 5.8441 12.9526 5.92622 13.3333 5.92684C14.0406 5.92684 14.7189 5.64589 15.219 5.14579C15.719 4.64569 16 3.96742 16 3.26017C16 2.55293 15.719 1.87465 15.219 1.37455C14.7189 0.874457 14.0406 0.593506 13.3333 0.593506Z" fill="#FF0000"/>
</svg>
