<svg width="18" height="13" viewBox="0 0 18 13" fill="none" xmlns="http://www.w3.org/2000/svg">
<path d="M15.5898 5.59871C15.5928 5.53031 15.6 5.46311 15.6 5.39351C15.6 2.74271 13.4508 0.593506 10.8 0.593506C8.934 0.593506 7.32 1.66091 6.5262 3.21611C6.1776 3.07511 5.799 2.99351 5.4 2.99351C3.882 2.99351 2.6406 4.12451 2.4408 5.58791C1.0218 6.07091 0 7.41131 0 8.99351C0 10.9819 1.6116 12.5935 3.6 12.5935H14.4C16.3884 12.5935 18 10.9819 18 8.99351C18 7.42271 16.9926 6.09071 15.5898 5.59871ZM6.7758 6.76931L8.5758 4.96931C8.6928 4.85231 8.8464 4.79351 9 4.79351C9.1536 4.79351 9.3072 4.85231 9.4242 4.96931L11.2242 6.76931C11.4588 7.00391 11.4588 7.38311 11.2242 7.61771C10.9896 7.85231 10.6104 7.85231 10.3758 7.61771L9.6 6.84191V10.1935C9.6 10.5247 9.3318 10.7935 9 10.7935C8.6682 10.7935 8.4 10.5247 8.4 10.1935V6.84191L7.6242 7.61771C7.3896 7.85231 7.0104 7.85231 6.7758 7.61771C6.5412 7.38311 6.5412 7.00391 6.7758 6.76931Z" fill="#FF0000"/>
</svg>
