<svg width="24" height="25" viewBox="0 0 24 25" fill="none" xmlns="http://www.w3.org/2000/svg">
<path d="M18.04 14.4787C17.62 14.8887 17.38 15.4787 17.44 16.1087C17.53 17.1887 18.52 17.9787 19.6 17.9787H21.5V19.1687C21.5 21.2387 19.81 22.9287 17.74 22.9287H7.63C7.94 22.6687 8.21 22.3487 8.42 21.9887C8.79 21.3887 9 20.6787 9 19.9287C9 17.7187 7.21 15.9287 5 15.9287C4.06 15.9287 3.19 16.2587 2.5 16.8087V12.4387C2.5 10.3687 4.18999 8.67871 6.25999 8.67871H17.74C19.81 8.67871 21.5 10.3687 21.5 12.4387V13.8787H19.48C18.92 13.8787 18.41 14.0987 18.04 14.4787Z" stroke="#171717" stroke-width="1.5" stroke-linecap="round" stroke-linejoin="round"/>
<path d="M2.5 13.3385V8.76857C2.5 7.57857 3.23 6.51853 4.34 6.09853L12.28 3.09853C13.52 2.62853 14.85 3.54856 14.85 4.87856V8.67854" stroke="#171717" stroke-width="1.5" stroke-linecap="round" stroke-linejoin="round"/>
<path d="M22.5588 14.8989V16.9589C22.5588 17.5089 22.1188 17.9589 21.5588 17.9789H19.5988C18.5188 17.9789 17.5288 17.1889 17.4388 16.1089C17.3788 15.4789 17.6188 14.8889 18.0388 14.4789C18.4088 14.0989 18.9188 13.8789 19.4788 13.8789H21.5588C22.1188 13.8989 22.5588 14.3489 22.5588 14.8989Z" stroke="#171717" stroke-width="1.5" stroke-linecap="round" stroke-linejoin="round"/>
<path d="M7 12.9287H14" stroke="#171717" stroke-width="1.5" stroke-linecap="round" stroke-linejoin="round"/>
<path d="M9 19.9287C9 20.6787 8.79 21.3887 8.42 21.9887C8.21 22.3487 7.94 22.6687 7.63 22.9287C6.93 23.5587 6.01 23.9287 5 23.9287C3.54 23.9287 2.27 23.1487 1.58 21.9887C1.21 21.3887 1 20.6787 1 19.9287C1 18.6687 1.58 17.5387 2.5 16.8087C3.19 16.2587 4.06 15.9287 5 15.9287C7.21 15.9287 9 17.7187 9 19.9287Z" stroke="#171717" stroke-width="1.5" stroke-miterlimit="10" stroke-linecap="round" stroke-linejoin="round"/>
<path d="M3.44141 19.9282L4.4314 20.9182L6.5614 18.9482" stroke="#171717" stroke-width="1.5" stroke-linecap="round" stroke-linejoin="round"/>
</svg>
